<?xml version="1.0" encoding="utf-8"?>
<!-- Generator: Adobe Illustrator 21.0.2, SVG Export Plug-In . SVG Version: 6.00 Build 0)  -->
<svg version="1.1" id="Layer_1" xmlns="http://www.w3.org/2000/svg" xmlns:xlink="http://www.w3.org/1999/xlink" x="0px" y="0px"
	 viewBox="0 0 500 500" style="enable-background:new 0 0 500 500;" xml:space="preserve">
<style type="text/css">
	.st0{stroke:#000000;stroke-width:13;stroke-miterlimit:10;}
	.st1{fill:#FFFFFF;}
	.st2{font-family:'NotoKufiArabic-Regular';}
	.st3{font-size:107px;}
</style>
<g>
	<g>
		<g>
			<g>
				<path d="M123.6,252.3c0.8,9.1,8.6,16.2,17.7,16.2h157.4l-4.3,48.1c-0.1,0.4-0.8,1.2-1.2,1.4l-41.7,11.3c-1.9,0.5-3.6,1-4.9,1.3
					c-1.3-0.4-3-0.8-4.9-1.3l-41.6-11.2c-0.4-0.2-1-0.9-1.2-1.4l-2.2-25.1c-0.8-9.1-17.8-16.4-17.8-16.4h-35.2
					c-4.7,0-9.1,1.9-12.2,5.3c-3.1,3.4-4.6,8-4.2,12.6l5.7,64.2c0.7,8.1,7.1,15.8,14.9,17.9l88.8,24.6c6.7,1.8,8.7,2.4,10.1,2.4
					c0.6,0,1.2-0.1,1.9-0.3c0.3-0.1,0.4-0.1,8-2.2l88.7-24.6c6.8-1.9,14-7.1,14.6-14.6L373,216.4c0.4-4.4-1.1-8.8-4-12
					c-2.9-3.2-7.2-5.1-11.6-5.1H188.5l-2.9-32.8h183.6c4.9,0,9-3.8,9.5-8.6l4-44c0.4-4.4-1-8.5-4-11.8c-3.1-3.4-7.7-5.4-12.5-5.4
					c0,0-0.4,0-0.4,0H127.7c-4.8,0-9.4,2-12.5,5.4c-3,3.2-4.4,7.4-4,11.7L123.6,252.3z M363.3,115.8l-2.9,31.6H182.8
					c-4.7,0-9.1,1.9-12.2,5.3c-3.1,3.4-4.6,8-4.2,12.7l3.3,36.7c0.8,9.1,8.6,16.3,17.8,16.3h166.3l-12.3,138.2
					c-0.3,0.1-0.7,0.3-1,0.4l-88.7,24.6c-1.9,0.5-3.7,1-5,1.4c-1.2-0.3-2.8-0.8-4.9-1.3L153.1,357c-0.4-0.2-1.1-1-1.2-1.4l-5.5-61.4
					h31.7l2.1,24.1c0.7,8.1,7.2,15.8,15,17.9l41.5,11.2c8.6,2.3,8.6,2.3,9.9,2.3c1.3,0,1.3,0,9.9-2.3l41.6-11.2
					c7.8-2.1,14.3-9.8,15-17.9l4.5-50.3c0.4-4.6-1.1-9.2-4.2-12.6c-3.1-3.4-7.5-5.3-12.2-5.3H142.1l-12-134.2H363.3z"/>
				<path d="M454,17.3c-3.1-3.4-7.6-5.3-12.2-5.3H52c-4.7,0-9.1,1.9-12.2,5.3c-3.1,3.4-4.6,8-4.2,12.7L71,428.3
					c0.7,8.1,7.2,15.8,15,18l150.7,41.8c2.9,0.8,6.4,1.2,9.9,1.2c3.5,0,7-0.4,9.9-1.2l151.1-41.9c7.8-2.2,14.3-9.9,15-18L458.2,30
					C458.6,25.3,457.1,20.7,454,17.3z M403.7,426.5c-0.1,0.5-0.8,1.3-1.1,1.4l-151.1,41.9c-2.4,0.7-7.3,0.7-9.7,0L91.2,428
					c-0.4-0.2-1.1-1-1.2-1.4L54.7,31.1H439L403.7,426.5z"/>
			</g>
		</g>
	</g>
	<g>
		<g>
			<path d="M186.2,44.2H80.5c-4.6,0-8.8,3.2-9.6,7.8c-1.1,6,3.6,11.3,9.4,11.3l105.8,0c4.6,0,8.8-3.2,9.6-7.8
				C196.7,49.5,192.1,44.2,186.2,44.2z"/>
		</g>
	</g>
	<g>
		<g>
			<path d="M225,44.2h-3.6c-4.6,0-8.8,3.2-9.6,7.8c-1.1,6,3.6,11.3,9.4,11.3l3.6,0c4.6,0,8.8-3.2,9.6-7.8
				C235.5,49.5,230.8,44.2,225,44.2z"/>
		</g>
	</g>
</g>
<path class="st0" d="M37,333.6h428c6.6,0,12-5.4,12-12V219.1c0-6.6-5.4-12-12-12H37c-6.6,0-12,5.4-12,12v102.5
	C25,328.2,30.4,333.6,37,333.6z"/>
<path class="st1" d="M460.5,330.4h-420c-6.6,0-12-5.4-12-12v-96c0-6.6,5.4-12,12-12h420c6.6,0,12,5.4,12,12v96
	C472.5,325,467.1,330.4,460.5,330.4z"/>
<text transform="matrix(1 0 0 1 102.5 306.5)" class="st2 st3">HTML</text>
</svg>
